<?xml version="1.0" encoding="iso-8859-1"?>
<!-- Uploaded to: SVG Repo, www.svgrepo.com, Generator: SVG Repo Mixer Tools -->
<svg height="800px" width="800px" version="1.1" id="Layer_1" xmlns="http://www.w3.org/2000/svg" xmlns:xlink="http://www.w3.org/1999/xlink" 
	 viewBox="0 0 512 512" xml:space="preserve">
<path style="fill:#E2A700;" d="M390.183,437.338l-11.808-19.109c-0.74-1.196-1.875-2.097-3.207-2.546l-31.315-10.566V370.28
	c0-3.334-2.704-6.038-6.038-6.038s-6.038,2.704-6.038,6.038v36.256l-24.54,19.49c-2.611,2.074-3.047,5.872-0.973,8.484
	c2.073,2.612,5.872,3.047,8.484,0.973l21.221-16.853l9.688,17.636c1.1,2.001,3.166,3.131,5.298,3.131c0.983,0,1.98-0.24,2.901-0.747
	c2.923-1.606,3.992-5.277,2.386-8.2l-5.671-10.321l18.676,6.301l10.663,17.257c1.142,1.848,3.119,2.864,5.143,2.864
	c1.084,0,2.179-0.291,3.169-0.903C391.057,443.896,391.935,440.176,390.183,437.338z"/>
<path style="fill:#ED2601;" d="M145.547,363.231L2.011,485.076c-4.022,3.414-1.607,9.988,3.668,9.988l0,0
	c87.416,0,167.986-47.307,210.582-123.642l9.069-16.253L145.547,363.231z"/>
<path style="fill:#C91C00;" d="M196.244,358.108C157.171,424.911,88.626,468.562,12.39,476.265l-10.379,8.811
	c-4.022,3.414-1.607,9.988,3.668,9.988l0,0c87.416,0,167.986-47.307,210.582-123.642l9.069-16.253L196.244,358.108z"/>
<path style="fill:#FDEA96;" d="M509.772,93.232l-55.724-32.259c-14.075-28.688-44.91-47.033-78.567-43.632
	c-38.931,3.934-68.338,35.617-70.621,73.45c-0.052-0.092-0.103-0.183-0.154-0.273L79.206,366.705
	c-2.009,2.461-0.876,6.176,2.161,7.105c35.815,10.938,72.087,13.884,105.747,8.875c-0.193,0.029-0.384,0.063-0.577,0.09
	c253.717,53.549,249.25-185.095,246.639-226.227c11.64-9.53,20.421-22.284,25.101-36.741c13.857-4.741,37.901-13.688,50.827-18.533
	C512.633,99.951,513.034,95.12,509.772,93.232z"/>
<path style="fill:#ED2601;" d="M509.772,93.232l-55.724-32.259c4.006,8.165,6.66,17.164,7.627,26.742
	c1.129,11.18-0.145,22.047-3.398,32.092c13.858-4.741,37.901-13.688,50.827-18.533C512.633,99.951,513.034,95.12,509.772,93.232z"/>
<path style="fill:#E8D37C;" d="M461.675,87.715c-4.369-43.235-42.958-74.742-86.194-70.375c-1.806,0.182-3.582,0.444-5.344,0.743
	c33.978,5.828,61.308,33.66,64.943,69.631c2.755,27.269-8.77,52.68-28.499,68.833c2.293,36.126,6.008,224.609-165.025,233.668
	c198.008,9.915,194.027-195.76,191.621-233.668C452.905,140.395,464.43,114.984,461.675,87.715z"/>
<path style="fill:#FDBF00;" d="M79.206,366.705c-2.009,2.461-0.876,6.176,2.161,7.105c83.193,25.409,168.899,7.808,218.455-52.887
	c50.811-62.232,49.63-152.639,4.883-230.406L79.206,366.705z"/>
<path style="fill:#EFB000;" d="M304.705,90.518l-6.118,7.494c30.609,70.903,26.36,148.019-18.596,203.08
	c-44.956,55.061-119.663,74.65-195.255,58.842l-5.529,6.771c-2.009,2.461-0.876,6.176,2.161,7.105
	c83.193,25.409,168.899,7.808,218.455-52.887C350.633,258.691,349.453,168.283,304.705,90.518z"/>
<circle style="fill:#4D4D4D;" cx="410.514" cy="72.6" r="10.686"/>
<path style="fill:#E2A700;" d="M331.953,447.423c-0.74-1.196-1.875-2.098-3.207-2.548l-31.315-10.566v-53.031
	c0-3.334-2.704-6.038-6.038-6.038s-6.038,2.704-6.038,6.038v54.45l-24.54,19.49c-2.611,2.074-3.047,5.872-0.973,8.484
	c2.073,2.612,5.872,3.047,8.484,0.973l21.221-16.853l9.688,17.636c1.1,2.001,3.166,3.131,5.298,3.131c0.983,0,1.98-0.24,2.901-0.747
	c2.923-1.606,3.992-5.277,2.386-8.2l-5.671-10.321l18.674,6.301l10.663,17.256c1.142,1.848,3.119,2.866,5.143,2.866
	c1.084,0,2.179-0.291,3.169-0.903c2.837-1.753,3.715-5.473,1.963-8.311L331.953,447.423z"/>
<circle style="fill:#4D4D4D;" cx="410.447" cy="72.6" r="10.686"/>
</svg>